# xmcd
#
# Track frame offsets:
#	150
#	22730
#	41565
#	59960
#	81815
#	101810
#	123705
#	145920
#	164872
#	185865
#	211857
#	230367
#	251457
#	272722
#	297370
#	332203
#
# Disc length: 4486 seconds
#
# Revision: 12
# Processed by: cddbd v1.5.2PL0 Copyright (c) Steve Scherf et al.
# Submitted via: EasyCDDAExtractor 15.3.0.1
#
DISCID=fc118410
DTITLE=Celine Dion - Let's Talk About Love
DYEAR=1997
DGENRE=Pop
TTITLE0=The Reason
TTITLE1=Immortality
TTITLE2=Treat Her Like A Lady
TTITLE3=Why Oh Why
TTITLE4=Love Is On The Way
TTITLE5=Tell Him (Duet With Barbra Streisand)
TTITLE6=Where Is The Love
TTITLE7=When I Need You
TTITLE8=Miles To Go (Before I Sleep)
TTITLE9=Us
TTITLE10=Just A Little Bit Of Love
TTITLE11=My Heart Will Go On (Love Theme From ''Titanic'')
TTITLE12=I Hate You Then I Love You  (Duet With Luciano Pavarotti)
TTITLE13=To Love You More
TTITLE14=Let's Talk About Love
TTITLE15=Data Track
EXTD=
EXTT0=
EXTT1=
EXTT2=
EXTT3=
EXTT4=
EXTT5=
EXTT6=
EXTT7=
EXTT8=
EXTT9=
EXTT10=
EXTT11=
EXTT12=
EXTT13=
EXTT14=
EXTT15=
PLAYORDER=
